<svg version="1.0" xmlns="http://www.w3.org/2000/svg"
 width="3000.000000pt" height="3000.000000pt" viewBox="0 0 3000.000000 3000.000000"
 preserveAspectRatio="xMidYMid meet">

<g transform="translate(0.000000,3000.000000) scale(0.100000,-0.100000)"
fill="#000000" stroke="none">
<path d="M21717 22745 c125 -42 212 -85 330 -164 263 -176 432 -469 520 -901
16 -79 17 -251 20 -2282 l4 -2198 -2021 0 -2020 0 0 -180 0 -180 2020 0 2020
0 0 -2547 c0 -1684 -4 -2585 -10 -2657 -47 -492 -296 -925 -627 -1090 -81 -40
-225 -89 -343 -115 -85 -19 -76 -19 2015 -19 2055 0 2098 0 2020 18 -115 26
-270 78 -340 112 -289 145 -513 479 -607 908 l-23 105 0 5040 0 5040 23 103
c85 385 266 685 510 846 100 66 238 134 341 167 l86 28 -2010 0 -2010 1 102
-35z"/>
<path d="M4452 22764 c3 -3 32 -12 65 -21 32 -8 82 -26 111 -40 110 -52 397
-320 560 -522 174 -216 303 -429 488 -806 124 -252 4641 -10438 4784 -10789
43 -103 80 -184 83 -179 3 4 24 58 47 118 23 61 992 2382 2153 5160 l2112
5049 3 -4534 c2 -3262 0 -4562 -8 -4630 -42 -357 -201 -701 -417 -900 -120
-111 -249 -174 -468 -231 l-110 -28 2000 0 c1743 1 1992 3 1935 15 -78 17
-236 68 -307 99 -289 128 -527 495 -615 948 l-22 112 -4 4925 c-2 3473 0 4959
8 5040 26 283 113 537 257 760 121 185 324 335 578 426 l80 29 -957 3 c-527 1
-1389 1 -1915 0 l-958 -3 69 -23 c292 -97 531 -290 709 -575 100 -158 147
-333 147 -543 0 -105 -3 -122 -39 -231 -21 -65 -778 -1882 -1681 -4038 -903
-2156 -1647 -3931 -1652 -3945 l-10 -25 -13 25 c-30 58 -3516 7955 -3558 8060
-104 264 -148 447 -149 608 0 111 12 172 47 247 93 195 288 322 665 433 24 7
-590 10 -1994 11 -1116 1 -2027 -2 -2024 -5z"/>
<path d="M5437 14514 c-4 -2965 2 -2713 -68 -2993 -58 -233 -131 -410 -211
-515 -158 -204 -410 -418 -640 -541 l-83 -45 1145 0 1144 0 -107 63 c-223 130
-448 320 -573 486 -145 193 -262 500 -308 813 -14 94 -16 371 -16 2469 l0
2364 -135 284 c-74 157 -137 287 -140 289 -2 3 -6 -1201 -8 -2674z"/>
<path d="M18873 9623 c-55 -76 -154 -212 -220 -303 -66 -91 -226 -312 -356
-492 -192 -264 -243 -328 -268 -337 -46 -16 -499 -15 -499 1 0 6 44 73 98 147
54 75 175 242 268 371 255 352 365 510 380 547 14 33 14 33 -15 33 -25 0 -42
-17 -128 -122 -55 -68 -242 -313 -417 -546 -181 -242 -326 -426 -339 -431 -12
-4 -218 -11 -457 -14 -939 -13 -1703 -46 -1760 -77 -24 -13 -26 -43 -5 -60 11
-9 51 -11 163 -6 559 25 1908 54 1956 42 16 -4 26 -12 23 -19 -2 -7 -74 -109
-159 -227 -147 -206 -328 -487 -328 -508 0 -26 22 -20 52 15 18 20 76 85 128
143 52 58 171 210 264 338 93 128 179 240 190 248 16 11 69 14 268 14 137 0
248 -4 248 -9 0 -12 -18 -37 -295 -416 -317 -435 -360 -490 -472 -607 -89 -93
-143 -176 -143 -217 0 -28 43 -55 75 -47 15 4 60 50 123 129 86 108 493 654
750 1008 50 70 99 133 108 140 13 10 69 16 218 20 228 8 451 28 439 40 -25 25
-287 59 -453 59 -60 0 -110 3 -110 6 0 13 34 62 321 465 427 600 511 729 507
771 -2 27 -8 34 -30 36 -23 3 -36 -11 -125 -135z"/>
<path d="M11084 9680 c-79 -53 -289 -238 -709 -625 -392 -361 -474 -434 -695
-619 -85 -72 -254 -218 -375 -325 -225 -199 -398 -341 -416 -341 -35 0 -40 -9
1039 1591 114 169 142 218 142 245 0 27 -5 37 -24 45 -31 15 -32 14 -249 -149
-323 -243 -580 -407 -1052 -669 -370 -206 -973 -506 -1294 -645 -202 -86 -487
-182 -602 -202 -45 -8 -81 -42 -59 -57 45 -29 70 -25 306 41 308 87 557 194
1129 488 822 422 1108 587 1475 851 93 67 122 78 91 34 -234 -335 -832 -1236
-983 -1483 -25 -41 -56 -103 -68 -137 -21 -58 -21 -64 -7 -87 25 -37 62 -41
122 -12 62 31 154 107 813 669 374 319 573 497 775 695 339 330 606 566 622
550 3 -3 -59 -103 -136 -224 -306 -472 -1088 -1744 -1152 -1871 -33 -65 -65
-188 -52 -201 7 -8 90 73 125 123 15 22 84 137 152 255 266 458 413 694 945
1525 207 323 296 478 296 515 0 73 -69 82 -159 20z"/>
<path d="M15407 9595 c-108 -40 -308 -252 -593 -630 -85 -113 -124 -153 -189
-199 -19 -13 -24 -21 -16 -29 21 -21 10 -58 -44 -150 l-55 -93 -88 -41 c-238
-112 -597 -137 -627 -43 -3 11 -4 24 -1 28 3 5 43 12 88 15 118 9 238 48 291
95 21 19 22 60 2 89 -21 30 -61 36 -152 23 -156 -21 -247 -68 -290 -149 -20
-37 -57 -54 -190 -86 -120 -29 -154 5 -113 118 34 95 35 108 15 124 -31 22
-69 15 -118 -22 -288 -220 -365 -259 -261 -131 61 75 75 105 63 128 -5 10 -19
18 -30 18 -27 0 -106 -76 -149 -143 -35 -54 -36 -55 -226 -145 -239 -113 -338
-150 -359 -132 -23 19 -19 37 36 147 47 91 51 105 45 146 -19 128 -144 124
-391 -14 -49 -27 -127 -76 -172 -109 -46 -32 -83 -57 -83 -54 0 3 28 35 63 72
71 76 165 216 169 251 2 13 -4 28 -13 34 -25 16 -60 -11 -107 -80 -96 -141
-118 -163 -220 -210 -109 -51 -189 -66 -211 -39 -28 33 -9 115 58 251 55 110
62 130 52 151 -8 18 -19 24 -43 24 -26 0 -45 -13 -109 -75 l-77 -75 -78 0
c-110 0 -205 -23 -303 -71 -94 -46 -195 -135 -206 -182 -10 -38 12 -85 48
-103 72 -38 194 10 503 197 l31 19 -1 -85 c-1 -80 1 -86 27 -112 26 -26 33
-28 110 -27 58 1 98 7 136 22 30 12 57 20 59 17 2 -2 -5 -17 -17 -33 -24 -34
-27 -62 -9 -80 22 -22 65 -12 124 29 173 119 239 161 344 217 80 42 129 62
159 64 69 5 70 -10 17 -135 -25 -60 -46 -124 -46 -143 0 -73 82 -109 183 -80
29 9 145 52 257 96 184 73 204 79 220 65 41 -37 118 -11 280 93 l95 61 11 -51
c28 -124 159 -139 387 -43 12 5 17 3 17 -8 0 -31 51 -76 103 -92 101 -30 326
-13 526 40 52 14 96 24 98 22 2 -2 -10 -34 -27 -70 -35 -78 -77 -218 -80 -267
-5 -84 0 -102 34 -136 55 -55 116 -46 233 34 65 44 295 244 389 337 111 112
180 213 158 235 -21 21 -94 -39 -339 -281 -227 -224 -265 -258 -299 -264 -45
-9 -70 2 -74 34 -6 42 58 241 114 353 84 168 200 361 252 419 25 28 100 97
166 152 279 233 444 403 522 536 51 88 55 121 18 150 -31 24 -45 25 -97 6z
m-14 -177 c-22 -39 -469 -495 -477 -487 -21 20 323 414 428 491 54 39 73 38
49 -4z m-1293 -831 c0 -32 -159 -91 -227 -85 l-38 4 70 33 c116 56 195 75 195
48z m-2810 -1 c0 -8 -122 -87 -185 -119 -68 -34 -204 -81 -212 -73 -10 10 108
101 172 131 81 39 225 78 225 61z"/>
<path d="M23097 9595 c-108 -40 -308 -252 -593 -630 -85 -113 -124 -153 -189
-199 -19 -13 -24 -21 -16 -29 21 -21 10 -58 -44 -150 l-55 -93 -88 -41 c-238
-112 -597 -137 -627 -43 -3 11 -4 24 -1 28 3 5 43 12 88 15 118 9 238 48 291
95 37 33 11 105 -42 117 -40 9 -172 -11 -250 -36 -46 -16 -77 -34 -108 -65
-23 -24 -43 -49 -43 -57 0 -8 -54 -31 -138 -60 -223 -76 -234 -71 -243 97 -5
103 -8 118 -28 140 -55 59 -120 43 -392 -96 -134 -68 -203 -98 -216 -94 -12 4
-25 22 -31 44 -15 49 -50 81 -96 89 -54 8 -147 -41 -241 -129 -41 -39 -78 -69
-80 -66 -2 2 20 52 50 111 60 115 63 128 39 147 -32 27 -61 0 -122 -110 l-57
-105 -98 -48 c-112 -55 -193 -71 -216 -43 -28 33 -9 115 58 251 55 110 62 130
52 151 -8 18 -19 24 -43 24 -26 0 -45 -13 -109 -75 l-77 -75 -78 0 c-110 0
-205 -23 -303 -71 -94 -46 -195 -135 -206 -182 -10 -38 12 -85 48 -103 72 -38
194 10 503 197 l31 19 -1 -85 c-1 -80 1 -86 27 -112 26 -26 33 -28 110 -27 67
0 96 6 159 31 75 30 76 30 62 7 -9 -12 -14 -38 -12 -56 3 -29 7 -33 34 -36 36
-4 102 42 229 160 109 101 183 158 206 158 12 0 21 -10 25 -27 11 -45 42 -101
66 -117 51 -36 140 -14 283 68 235 137 295 168 310 162 12 -4 15 -26 15 -118
0 -130 14 -170 68 -201 61 -35 207 -19 335 36 l52 23 20 -30 c32 -49 86 -70
193 -74 115 -5 253 11 401 49 63 16 116 27 118 25 2 -1 -10 -33 -27 -69 -35
-78 -77 -218 -80 -267 -5 -84 0 -102 34 -136 55 -55 116 -46 233 34 65 44 295
244 389 337 111 112 180 213 158 235 -21 21 -94 -39 -339 -281 -227 -224 -265
-258 -299 -264 -45 -9 -70 2 -74 34 -6 42 58 241 114 353 84 168 200 361 252
419 25 28 100 97 166 152 279 233 444 403 522 536 51 88 55 121 18 150 -31 24
-45 25 -97 6z m-14 -177 c-22 -39 -469 -495 -477 -487 -21 20 323 414 428 491
54 39 73 38 49 -4z m-1293 -831 c0 -32 -159 -91 -227 -85 l-38 4 70 33 c116
56 195 75 195 48z m-2430 -1 c0 -8 -122 -87 -185 -119 -68 -34 -204 -81 -212
-73 -10 10 108 101 172 131 81 39 225 78 225 61z"/>
<path d="M10970 8680 c-12 -8 -10 -10 10 -10 14 0 36 -3 50 -6 24 -5 24 -5 6
10 -23 18 -44 20 -66 6z"/>
<path d="M20255 6510 c3 -5 23 -10 43 -10 28 0 33 3 22 10 -20 13 -73 13 -65
0z"/>
</g>
</svg>
